<?xml version="1.0" encoding="utf-8"?>
<!DOCTYPE svg PUBLIC "-//W3C//DTD SVG 1.1//EN" "http://www.w3.org/Graphics/SVG/1.1/DTD/svg11.dtd">
<svg xmlns="http://www.w3.org/2000/svg" xmlns:xlink="http://www.w3.org/1999/xlink" viewBox="0 0 1024 1024" version="1.1">
<metadata> Free Icon Download -- www.onlinewebfonts.com </metadata>
<g>
<path d="M704 896h-640v-576h640v192h64v-320c0-35-29-64-64-64h-192c0-71-57-128-128-128s-128 57-128 128h-192c-35 0-64 29-64 64v704c0 35 29 64 64 64h640c35 0 64-29 64-64v-128h-64v128zM192 192c29 0 29 0 64 0s64-29 64-64 29-64 64-64 64 29 64 64 32 64 64 64 33 0 64 0 64 29 64 64h-512c0-39 28-64 64-64zM128 704h128v-64h-128v64zM576 576v-128l-256 192 256 192v-128h320v-128h-320zM128 832h192v-64h-192v64zM448 384h-320v64h320v-64zM256 512h-128v64h128v-64z" />
</g>
</svg>